# xmcd CD database file
#
# Track frame offsets:
#	150
#	31800
#	100425
#	126150
#	156150
#	189901
#	225525
#	249043
#	295031
#	314006
#
# Disc length: 4415 seconds
#
# Revision: 0
# Processed by: cddbd v1.5.1PL0 Copyright (c) Steve Scherf et al.
# Submitted via: CDex 1.51
#
DISCID=7c113d0a
DTITLE=Paris-Prague Jazz Club - Jazzy Colors
DYEAR=2003
DGENRE=Jazz
TTITLE0=Mascotte - Aladar Pege Quartet
TTITLE1=Ambiances II and III - Platypus Ensemble
TTITLE2=Dancing Jumping - Christian and Wolfgang Muthspiel
TTITLE3=Anataga inakute sabishii - Trio endo ritsuko
TTITLE4=Kosher - Oles - Trzaska - Jean Luc Cappozzo
TTITLE5=Sugar - Gabriel Jonas and Matus Jakabcic
TTITLE6=Lullaby of birdland - Pat Collins and Draken Derek
TTITLE7=This time - Jeanette Lindstrom group
TTITLE8=Santa-Claus is coming and bye-bye blackbird - Milos mike krstic
TTITLE9=My romance - Yvonne Sanchez and trio balzar
EXTD=YEAR: 2003
EXTT0=
EXTT1=
EXTT2=
EXTT3=
EXTT4=
EXTT5=
EXTT6=
EXTT7=
EXTT8=
EXTT9=
PLAYORDER=
